<?xml version="1.0" encoding="utf-8"?>
<!-- Generator: Adobe Illustrator 16.0.0, SVG Export Plug-In . SVG Version: 6.00 Build 0)  -->
<!DOCTYPE svg PUBLIC "-//W3C//DTD SVG 1.1//EN" "http://www.w3.org/Graphics/SVG/1.1/DTD/svg11.dtd">
<svg version="1.1" id="Capa_1" xmlns="http://www.w3.org/2000/svg" xmlns:xlink="http://www.w3.org/1999/xlink" x="0px" y="0px"
	 width="283.46px" height="425.199px" viewBox="0 0 283.46 425.199" enable-background="new 0 0 283.46 425.199"
	 xml:space="preserve">
<path fill="#2196F3" d="M248.685,274.408h-19.732v-32.649h4.453c5.336,0,9.662-4.326,9.662-9.663c0-5.338-4.326-9.664-9.662-9.664
	h-3.313c-4.432-29.639-7.063-58.646-24.759-75.999c-18.937-18.567-43.56-24.625-60.388-39.212c0.471,0.034,0.941,0.061,1.416,0.061
	c5.979,0,11.564-2.661,15.322-7.305c1.307-1.616,2.349-3.418,3.098-5.355l0.115-0.302l-0.271,0.176
	c-3.161,2.048-6.833,3.131-10.617,3.131c-4.439,0-8.791-1.542-12.252-4.343c-6.578-5.326-8.968-14.213-5.947-22.112l0.115-0.301
	l-0.27,0.175c-1.738,1.129-3.284,2.521-4.594,4.143c-3.312,4.089-4.832,9.223-4.281,14.456s3.107,9.938,7.198,13.249
	c1.732,1.402,3.685,2.488,5.76,3.232c-16.843,15.39-42.213,21.283-61.617,40.308c-17.697,17.353-20.324,46.36-24.754,75.999h-3.312
	c-5.338,0-9.665,4.326-9.665,9.664c0,5.337,4.326,9.663,9.665,9.663h4.45v32.649H34.776l-14.496,18.108v61.813H263.18v-61.813
	L248.685,274.408z M68.908,337.484H50.007v-29.046c0-6.595,9.451-10.915,9.451-10.915s9.45,4.32,9.45,10.915V337.484z
	 M87.178,262.35H74.207v-19.933c0-4.525,6.485-7.491,6.485-7.491s6.484,2.966,6.484,7.491L87.178,262.35L87.178,262.35z
	 M104.726,242.417c0-4.525,6.485-7.491,6.485-7.491s6.485,2.966,6.485,7.491v19.933h-12.971L104.726,242.417L104.726,242.417z
	 M123.756,337.484h-18.901v-29.046c0-6.595,9.45-10.915,9.45-10.915s9.451,4.32,9.451,10.915V337.484L123.756,337.484z
	 M148.214,262.35h-12.97v-19.933c0-4.525,6.485-7.491,6.485-7.491s6.484,2.966,6.484,7.491V262.35L148.214,262.35z M178.604,337.484
	h-18.9v-29.046c0-6.595,9.45-10.915,9.45-10.915s9.45,4.32,9.45,10.915V337.484z M178.732,262.35h-12.97v-19.933
	c0-4.525,6.485-7.491,6.485-7.491s6.484,2.966,6.484,7.491V262.35L178.732,262.35z M209.251,262.35h-12.971v-19.933
	c0-4.525,6.485-7.491,6.485-7.491s6.483,2.966,6.483,7.491v19.933H209.251z M233.453,337.484h-18.9v-29.046
	c0-6.595,9.449-10.915,9.449-10.915s9.451,4.32,9.451,10.915V337.484z"/>
</svg>
