<?xml version="1.0" encoding="utf-8"?>
<!-- Generator: Adobe Illustrator 16.0.0, SVG Export Plug-In . SVG Version: 6.00 Build 0)  -->
<!DOCTYPE svg PUBLIC "-//W3C//DTD SVG 1.1//EN" "http://www.w3.org/Graphics/SVG/1.1/DTD/svg11.dtd">
<svg version="1.1" id="Layer_1" xmlns="http://www.w3.org/2000/svg" xmlns:xlink="http://www.w3.org/1999/xlink" x="0px" y="0px"
	 width="283.46px" height="425.199px" viewBox="0 0 283.46 425.199" enable-background="new 0 0 283.46 425.199"
	 xml:space="preserve">
<path fill="#F4E8B3" d="M49.761,223.043h76.555c2.236-5.16,3.479-10.857,3.479-16.85c0-14.668-7.436-27.584-18.713-35.126
	c-7.989-5.343-15.455-11.428-21.988-18.478l-1.072-1.157l-0.25,0.269c-6.88,7.426-14.722,13.859-23.09,19.555
	c-11.586,7.885-19.04,21.476-18.395,36.776C46.511,213.342,47.735,218.406,49.761,223.043z"/>
<path fill="#E5CD80" d="M125.333,187.238h-0.043c-0.818-1.119-7.659-11.789-14.208-16.171c-6.155-4.116-11.996-8.681-17.344-13.78
	c-4.289,8.266-6.429,17.649-6.019,27.378c0.037,0.861,0.095,1.719,0.171,2.573H70.118v23.87H46.542
	c0.488,4.191,1.587,8.203,3.219,11.936h76.555c2.236-5.16,3.479-10.857,3.479-16.85
	C129.795,199.375,128.186,192.936,125.333,187.238z"/>
<path fill="#F4E8B3" d="M157.177,223.043h76.556c2.235-5.16,3.478-10.857,3.478-16.85c0-14.668-7.436-27.584-18.713-35.126
	c-7.988-5.343-15.455-11.428-21.987-18.478l-1.072-1.157l-0.25,0.269c-6.88,7.426-14.722,13.859-23.091,19.555
	c-11.586,7.885-19.039,21.476-18.394,36.776C153.927,213.342,155.152,218.406,157.177,223.043z"/>
<path fill="#E5CD80" d="M213.341,211.108v-23.87h-17.773c0.077-0.854,0.136-1.712,0.172-2.573c0.41-9.729-1.73-19.112-6.019-27.378
	h-0.082c-5.44,5.128-11.346,9.753-17.542,13.969c-11.586,7.886-19.039,21.476-18.395,36.776c0.224,5.311,1.447,10.373,3.474,15.011
	h76.521c1.631-3.732,2.73-7.744,3.219-11.936L213.341,211.108L213.341,211.108z"/>
<path fill="#F4E8B3" d="M103.119,199.173h76.555c2.236-5.161,3.479-10.858,3.479-16.85c0-14.668-7.436-27.584-18.713-35.126
	c-7.988-5.344-15.455-11.429-21.988-18.479l-1.072-1.157l-0.25,0.27c-6.88,7.425-14.722,13.859-23.09,19.554
	c-11.586,7.886-19.04,21.476-18.395,36.776C99.869,189.472,101.092,194.535,103.119,199.173z"/>
<path fill="#E5CD80" d="M141.73,187.238c-15.711,0-30.001-6.074-40.657-15.998c-1.104,4.094-1.617,8.434-1.428,12.923
	c0.224,5.311,1.447,10.373,3.474,15.011h76.555c2.236-5.161,3.479-10.858,3.479-16.85c0-3.647-0.461-7.188-1.325-10.563
	C171.232,181.377,157.166,187.238,141.73,187.238z"/>
<polygon fill="#2196F3" points="253.92,193.205 253.92,223.043 201.406,223.043 201.406,199.173 82.055,199.173 82.055,223.043 
	29.54,223.043 29.54,193.205 5.669,193.205 5.669,306.589 29.54,306.589 82.055,306.589 201.406,306.589 253.92,306.589 
	277.791,306.589 277.791,193.205 "/>
<path fill="#ACABB1" d="M177.536,306.589h-71.611v-46.901c0-7.98,3.989-15.434,10.629-19.861l25.176-16.783l25.176,16.784
	c6.641,4.427,10.629,11.88,10.629,19.861L177.536,306.589L177.536,306.589z"/>
<path fill="#F4E8B3" d="M253.832,193.205h24.061c0.703-1.622,1.093-3.413,1.093-5.296c0-4.563-2.288-8.584-5.771-10.965
	c-2.561-1.75-4.988-3.688-7.096-5.963l-0.262-0.282l-0.265,0.285c-2.045,2.206-4.346,4.162-6.864,5.807
	c-3.76,2.456-6.195,6.797-5.988,11.697C252.809,190.156,253.194,191.748,253.832,193.205z"/>
<path d="M45.661,224.835c-2.308-5.283-3.602-10.873-3.844-16.614c-0.688-16.324,6.918-31.525,20.348-40.666
	c8.774-5.971,16.077-12.151,22.325-18.896l3.532-3.813l4.356,4.7c1.483,1.601,3.061,3.195,4.69,4.74l-6.159,6.497
	c-0.99-0.939-1.963-1.895-2.911-2.86c-6.001,6.019-12.843,11.619-20.798,17.033c-10.853,7.385-16.999,19.68-16.441,32.888
	c0.196,4.632,1.24,9.142,3.103,13.407L45.661,224.835z"/>
<path d="M237.799,224.835l-8.202-3.584c1.863-4.266,2.908-8.776,3.103-13.408c0.558-13.207-5.59-25.502-16.441-32.887
	c-7.955-5.414-14.796-11.015-20.798-17.033c-0.947,0.966-1.921,1.922-2.91,2.86l-6.158-6.497c1.629-1.545,3.207-3.14,4.689-4.739
	l4.356-4.701l3.532,3.813c6.248,6.743,13.551,12.925,22.324,18.896c13.43,9.141,21.037,24.342,20.349,40.665
	C241.401,213.962,240.108,219.552,237.799,224.835z"/>
<path fill="#787680" d="M166.906,239.827l-25.176-16.784l-25.176,16.784c-6.641,4.427-10.629,11.88-10.629,19.861v23.87
	c0-7.98,3.989-15.434,10.629-19.861l25.176-16.784l25.176,16.784c6.641,4.428,10.629,11.881,10.629,19.861v-23.87
	C177.536,251.707,173.546,244.254,166.906,239.827z"/>
<path fill="#F4E8B3" d="M29.629,193.205H5.569c-0.703-1.622-1.093-3.413-1.093-5.296c0-4.563,2.289-8.584,5.771-10.965
	c2.561-1.75,4.988-3.688,7.097-5.963l0.261-0.282l0.265,0.285c2.044,2.206,4.345,4.162,6.864,5.807
	c3.76,2.456,6.195,6.797,5.989,11.697C30.651,190.156,30.266,191.748,29.629,193.205z"/>
<g>
	<rect x="29.54" y="223.043" fill="#2962FF" width="16.709" height="83.546"/>
	<rect x="237.21" y="223.043" fill="#2962FF" width="16.71" height="83.546"/>
	<rect x="70.119" y="223.043" fill="#2962FF" width="11.936" height="83.546"/>
	<rect x="201.406" y="223.043" fill="#2962FF" width="11.936" height="83.546"/>
</g>
<g>
	<path fill="#FFFFFF" d="M98.465,270.784h-8.951v-8.951h8.951V270.784z M98.465,252.881h-8.951v-23.87h8.951V252.881z"/>
	<path fill="#FFFFFF" d="M170.076,181.271h-8.951c0-2.106-0.199-4.2-0.593-6.222l8.787-1.71
		C169.822,175.923,170.076,178.591,170.076,181.271z M158.087,167.691c-3.609-7.378-9.725-11.782-16.357-11.782v-8.951
		c9.98,0,19.328,6.438,24.398,16.8L158.087,167.691z"/>
</g>
<rect x="5.669" y="306.589" fill="#E5CD80" width="272.121" height="17.903"/>
<path d="M283.46,187.909c0-5.874-2.887-11.354-7.722-14.66c-2.604-1.779-4.677-3.517-6.339-5.311l-3.545-3.824l-3.547,3.828
	c-1.813,1.957-3.841,3.673-6.028,5.103c-5.205,3.4-8.275,9.39-8.013,15.631c0.082,1.936,0.479,3.824,1.178,5.628v24.264h-9.427
	c0.929-3.369,1.478-6.828,1.625-10.347c0.688-16.323-6.919-31.525-20.349-40.665c-8.5-5.785-15.615-11.768-21.732-18.267v-27.694
	h-8.951v28.453c-1.346,1.432-2.76,2.855-4.22,4.239l6.157,6.496c0.99-0.938,1.964-1.895,2.912-2.859
	c6.001,6.019,12.842,11.618,20.797,17.032c10.853,7.386,16.999,19.681,16.441,32.888c-0.154,3.672-0.852,7.266-2.059,10.725h-24.76
	v-19.396v-4.476V181.27h-8.951v13.428h-10.961c1.096-4.008,1.66-8.146,1.66-12.374c0-15.655-7.738-30.178-20.701-38.847
	c-8.102-5.418-14.881-11.088-20.722-17.307V97.724h-8.951v27.694c-6.117,6.499-13.233,12.482-21.733,18.267
	c-13.43,9.14-21.036,24.342-20.348,40.665c0.148,3.518,0.696,6.979,1.625,10.347H86.53V181.27h-8.951v13.428v4.476v19.395H52.82
	c-1.208-3.458-1.904-7.052-2.06-10.724c-0.558-13.208,5.589-25.502,16.441-32.888c7.955-5.414,14.796-11.015,20.798-17.033
	c0.948,0.966,1.921,1.922,2.911,2.86l6.158-6.497c-1.46-1.384-2.873-2.807-4.219-4.238v-28.453h-8.952v27.694
	c-6.118,6.499-13.233,12.481-21.733,18.266c-13.43,9.141-21.037,24.342-20.348,40.666c0.148,3.518,0.696,6.978,1.625,10.347h-9.426
	v-24.265c0.699-1.803,1.096-3.692,1.178-5.627c0.263-6.242-2.807-12.232-8.013-15.631c-2.187-1.429-4.215-3.146-6.028-5.102
	l-3.547-3.829l-3.545,3.825c-1.662,1.793-3.735,3.53-6.339,5.311C2.886,176.555,0,182.035,0,187.909c0,2.214,0.404,4.366,1.194,6.41
	v107.794v8.951v17.903h281.072v-17.903v-8.951V194.32C283.056,192.276,283.46,190.123,283.46,187.909z M261.175,180.538
	c1.643-1.073,3.215-2.272,4.699-3.583c1.433,1.243,3.028,2.464,4.813,3.684c2.393,1.636,3.821,4.354,3.821,7.271
	c0,0.275-0.013,0.549-0.037,0.819H257.24c-0.014-0.143-0.023-0.286-0.029-0.431C257.078,185.149,258.56,182.246,261.175,180.538z
	 M249.445,227.519v74.595h-7.758v-49.232h-8.951v49.232h-8.951v-49.232h-8.951v49.232h-8.951v-74.595H249.445z M104.116,183.974
	c-0.499-11.811,4.367-22.887,13.159-30.38c3.335,2.56,7.024,4.574,11.031,5.988l2.977-8.442c-2.262-0.798-4.396-1.841-6.39-3.115
	c6.136-4.465,11.583-9.078,16.463-13.972c4.909,4.994,10.542,9.758,16.796,14.228c-1.875,1.156-3.869,2.116-5.977,2.859l2.979,8.441
	c3.855-1.36,7.418-3.279,10.655-5.704c8.13,7.109,12.866,17.429,12.866,28.446c0,4.261-0.691,8.41-2.061,12.373h-70.448
	C104.959,191.24,104.271,187.645,104.116,183.974z M86.53,203.649h13.661h82.422h14.318v14.919v83.546h-14.92v-42.426
	c0-9.499-4.719-18.315-12.622-23.585l-27.659-18.438l-27.658,18.439c-7.904,5.27-12.623,14.086-12.623,23.585v42.426H86.53v-83.547
	V203.649z M173.06,302.114H110.4v-42.426c0-6.499,3.229-12.531,8.636-16.137l22.693-15.129l22.693,15.129
	c5.408,3.605,8.637,9.638,8.637,16.137V302.114z M77.578,227.519v74.595h-8.951v-49.232h-8.951v49.232h-8.952v-49.232h-8.951v49.232
	h-7.758v-74.595H77.578z M12.772,180.64c1.785-1.22,3.38-2.441,4.813-3.685c1.485,1.311,3.056,2.51,4.699,3.583
	c2.615,1.708,4.098,4.609,3.965,7.761c-0.006,0.144-0.016,0.288-0.029,0.43H8.988c-0.025-0.271-0.037-0.544-0.037-0.819
	C8.951,184.992,10.38,182.276,12.772,180.64z M10.145,197.681h14.919v20.887v83.546H10.145V197.681z M273.316,320.017H10.145v-8.951
	h14.919h8.952h43.563h8.951h14.919h80.563h14.918h8.951h43.563h8.951h14.919v8.951H273.316z M258.396,302.114v-83.546v-20.887
	h14.918v104.434L258.396,302.114L258.396,302.114z"/>
<rect x="137.254" y="79.822" width="8.951" height="8.951"/>
<rect x="83.898" y="103.692" width="8.951" height="8.951"/>
<rect x="190.611" y="103.692" width="8.951" height="8.951"/>
<rect x="270.033" y="336.427" width="8.951" height="8.951"/>
<rect x="251.062" y="336.427" width="8.951" height="8.951"/>
<rect x="232.097" y="336.427" width="8.951" height="8.951"/>
<rect x="213.126" y="336.427" width="8.951" height="8.951"/>
<rect x="194.162" y="336.427" width="8.951" height="8.951"/>
<rect x="175.191" y="336.427" width="8.951" height="8.951"/>
<rect x="156.225" y="336.427" width="8.951" height="8.951"/>
<rect x="137.254" y="336.427" width="8.951" height="8.951"/>
<rect x="118.284" y="336.427" width="8.951" height="8.951"/>
<rect x="99.318" y="336.427" width="8.951" height="8.951"/>
<rect x="80.348" y="336.427" width="8.951" height="8.951"/>
<rect x="61.382" y="336.427" width="8.951" height="8.951"/>
<rect x="42.412" y="336.427" width="8.951" height="8.951"/>
<rect x="23.446" y="336.427" width="8.951" height="8.951"/>
<rect x="4.476" y="336.427" width="8.951" height="8.951"/>
<rect x="111.892" y="212.6" width="8.951" height="8.951"/>
<rect x="93.989" y="212.6" width="8.951" height="8.951"/>
<rect x="180.519" y="212.6" width="8.951" height="8.951"/>
<rect x="162.617" y="212.6" width="8.951" height="8.951"/>
<rect x="232.736" y="234.979" width="8.951" height="8.951"/>
<rect x="214.833" y="234.979" width="8.951" height="8.951"/>
<rect x="59.675" y="234.979" width="8.951" height="8.951"/>
<rect x="41.773" y="234.979" width="8.951" height="8.951"/>
</svg>
